<svg xmlns="http://www.w3.org/2000/svg" viewBox="0 0 520 360">
  <g stroke="#111" stroke-width="1.4" fill="none" stroke-linecap="round" stroke-linejoin="round" vector-effect="non-scaling-stroke" opacity="0.92">
    <line x1="40" y1="180" x2="480" y2="180"/>
    <line x1="260" y1="30" x2="260" y2="330"/>
    <circle cx="260" cy="180" r="128"/>
    <circle cx="260" cy="180" r="130" opacity="0.35"/>
    <path d="M70 180 A190 190 0 0 1 260  -10" opacity=".55"/>
    <path d="M70 180 A190 190 0 0 0 260 370" opacity=".18"/>
    <line x1="260" y1="180" x2="130" y2="80" stroke-dasharray="4 5" opacity=".7"/>
    <line x1="260" y1="180" x2="130" y2="280" stroke-dasharray="4 5" opacity=".7"/>
    <line x1="130" y1="80" x2="130" y2="280"/>
    <line x1="260" y1="50" x2="130" y2="80"/>
    <line x1="360" y1="60" x2="360" y2="185"/>
    <line x1="260" y1="50" x2="360" y2="60"/>
    <line x1="180" y1="86" x2="430" y2="86" stroke-dasharray="3 6" opacity=".4"/>
    <line x1="125" y1="180" x2="430" y2="180" stroke-dasharray="3 6" opacity=".4"/>
    <line x1="130" y1="80" x2="260" y2="80" stroke-dasharray="3 6" opacity=".4"/>
    <path d="M260 180 m0 -62 a62 62 0 0 1 54 31"/>
    <path d="M260 180 m-58 0 a58 58 0 0 1 18 -42"/>
    <path d="M165 250 L88 306" opacity=".55"/>
  </g>
  <g fill="#111" font-family="Georgia, serif" font-size="13">
    <text x="236" y="21">90°</text><text x="450" y="174">(1,0)</text><text x="245" y="349">(0,-1)</text>
    <text x="63" y="174">(-1,0)</text><text x="159" y="79">60°</text><text x="232" y="84">30°</text><text x="184" y="218">45°</text>
  </g>
  <g fill="#111">
    <circle cx="260" cy="180" r="5"/><circle cx="130" cy="80" r="3.5"/><circle cx="130" cy="280" r="3.5"/><circle cx="260" cy="50" r="3"/><circle cx="360" cy="180" r="3"/><circle cx="130" cy="180" r="3"/>
  </g>
</svg>
